<?xml version="1.0" standalone="no"?>
<!DOCTYPE svg PUBLIC "-//W3C//DTD SVG 1.1//EN" "http://www.w3.org/Graphics/SVG/1.1/DTD/svg11.dtd" >
<svg>
<metadata>
Created by FontForge 20110222 at Tue Jul  3 23:52:57 2012
 By Stefan Warting
Copyright (C) 1993; Type Market Ltd. Moscow, 119136, Box 20; phone:(095)1427712; Created by A.Kustov
</metadata>
<defs>
<font id="HeliosLight" horiz-adv-x="556" >
  <font-face 
    font-family="HeliosLight"
    font-weight="300"
    font-stretch="normal"
    units-per-em="1000"
    panose-1="2 11 4 0 0 0 0 0 0 0"
    ascent="788"
    descent="-212"
    x-height="518"
    cap-height="720"
    bbox="-46 -212 1220 954"
    underline-thickness="58"
    underline-position="-32"
    stemh="50"
    stemv="60"
    unicode-range="U+0020-2122"
  />
<missing-glyph horiz-adv-x="500" 
 />
    <glyph glyph-name=".notdef" horiz-adv-x="500" 
 />
    <glyph glyph-name="space" unicode=" " horiz-adv-x="278" 
 />
    <glyph glyph-name="space" unicode="&#xa0;" horiz-adv-x="278" 
 />
    <glyph glyph-name="exclam" unicode="!" horiz-adv-x="333" 
d="M144 181l-14 315v224h73v-224l-14 -315h-45zM203 0h-73v88h73v-88z" />
    <glyph glyph-name="quotedbl" unicode="&#x22;" horiz-adv-x="278" 
d="M57 494v226h52v-226h-52zM168 494v226h52v-226h-52z" />
    <glyph glyph-name="numbersign" unicode="#" 
d="M504 287v-59h-111l-32 -228h-59l31 228h-137l-34 -228h-59l34 228h-110v59h119l21 140h-112v59h120l32 212h60l-32 -212h136l31 212h59l-31 -212h100v-59h-108l-20 -140h102zM363 427h-136l-22 -140h138z" />
    <glyph glyph-name="dollar" unicode="$" 
d="M255 394v257c-75 0 -135 -51 -135 -125c0 -88 61 -111 135 -132zM302 322v-287c83 0 152 61 152 145c0 99 -67 124 -152 142zM302 -19v-76h-47v76c-113 0 -215 88 -215 192v30h62c0 -90 62 -163 153 -168v297c-110 27 -199 65 -199 191c0 111 90 182 199 182v61h47v-61
c110 0 191 -63 195 -176h-65c0 74 -58 122 -130 122v-266c131 -31 216 -65 216 -216c0 -117 -111 -188 -216 -188z" />
    <glyph glyph-name="percent" unicode="%" horiz-adv-x="889" 
d="M658 331c91 0 166 -75 166 -166s-75 -165 -166 -165s-165 75 -165 165s74 166 165 166zM658 274c-59 0 -108 -50 -108 -109s50 -108 108 -108s109 50 109 108s-50 109 -109 109zM232 698c91 0 166 -75 166 -166s-75 -165 -166 -165s-165 75 -165 165s74 166 165 166z
M232 641c-59 0 -108 -50 -108 -109s50 -108 108 -108s109 50 109 108s-50 109 -109 109zM668 705l-397 -719h-52l397 719h52z" />
    <glyph glyph-name="ampersand" unicode="&#x26;" horiz-adv-x="667" 
d="M454 131l-205 244c-79 -37 -140 -107 -140 -185c0 -95 70 -155 162 -155c77 0 135 39 183 96zM293 666c-50 0 -96 -33 -96 -86c0 -43 49 -104 75 -135c75 43 113 80 113 131c0 45 -33 90 -92 90zM518 326h59c-3 -65 -14 -132 -50 -188l117 -138h-81l-70 85
c-62 -75 -131 -104 -227 -104c-125 0 -225 85 -225 214c0 108 80 180 172 223c-39 45 -77 98 -77 161c0 91 74 141 162 141c89 0 151 -63 151 -139c0 -85 -50 -127 -142 -181l181 -214c25 42 30 91 30 140z" />
    <glyph glyph-name="quotesingle" unicode="'" horiz-adv-x="222" 
d="M85 494v226h52v-226h-52z" />
    <glyph glyph-name="parenleft" unicode="(" horiz-adv-x="333" 
d="M226 739h51c-95 -138 -154 -299 -154 -467c0 -166 62 -326 154 -463h-51c-110 152 -171 277 -171 467c0 183 63 319 171 463z" />
    <glyph glyph-name="parenright" unicode=")" horiz-adv-x="333" 
d="M56 739h51c110 -152 171 -277 171 -467c0 -183 -63 -319 -171 -463h-51c95 138 154 298 154 466c0 166 -62 327 -154 464z" />
    <glyph glyph-name="asterisk" unicode="*" horiz-adv-x="389" 
d="M62 646l111 -43v117h42v-117l114 42l15 -44l-114 -37l75 -106l-39 -24l-74 108l-78 -106l-35 27l77 101l-112 40z" />
    <glyph glyph-name="plus" unicode="+" horiz-adv-x="660" 
d="M300 280v220h60v-220h220v-60h-220v-220h-60v220h-220v60h220z" />
    <glyph glyph-name="comma" unicode="," horiz-adv-x="278" 
d="M102 88h73v-118c0 -58 -31 -94 -73 -107v37c16 10 34 26 34 66v34h-34v88z" />
    <glyph glyph-name="hyphen" unicode="-" horiz-adv-x="333" 
d="M40 280h253v-60h-253v60z" />
    <glyph glyph-name="hyphen" unicode="&#xad;" horiz-adv-x="333" 
d="M40 280h253v-60h-253v60z" />
    <glyph glyph-name="period" unicode="." horiz-adv-x="278" 
d="M175 0h-73v88h73v-88z" />
    <glyph glyph-name="slash" unicode="/" horiz-adv-x="278" 
d="M288 739l-235 -829h-56l235 829h56z" />
    <glyph glyph-name="zero" unicode="0" 
d="M452 347c0 152 -27 304 -176 304c-140 0 -173 -155 -173 -311c0 -181 40 -300 175 -300c152 0 174 165 174 307zM278 705c209 0 238 -201 238 -365c0 -187 -44 -354 -238 -354c-195 0 -239 166 -239 361c0 178 36 358 239 358z" />
    <glyph glyph-name="one" unicode="1" 
d="M315 705h51v-705h-64v524h-182v42c107 7 174 18 195 139z" />
    <glyph glyph-name="two" unicode="2" 
d="M137 474h-68c0 139 90 231 229 231c142 0 217 -87 217 -195c0 -187 -202 -234 -307 -314c-46 -35 -89 -75 -92 -142h393v-54h-461c0 67 10 120 55 172c147 170 342 168 342 334c0 92 -68 145 -155 145c-92 0 -153 -82 -153 -177z" />
    <glyph glyph-name="three" unicode="3" 
d="M122 500h-64c0 82 43 205 228 205c111 0 201 -56 201 -174c0 -73 -32 -128 -100 -157c102 -32 125 -109 125 -174c0 -116 -82 -214 -227 -214c-163 0 -236 54 -251 218h64c0 -107 71 -164 175 -164c102 0 175 74 175 159c0 114 -103 141 -227 141v52
c119 0 202 27 202 135c0 87 -69 124 -150 124c-90 0 -151 -63 -151 -151z" />
    <glyph glyph-name="four" unicode="4" 
d="M364 698h58v-470h98v-54h-98v-174h-64v174h-322v55zM358 602l-259 -374h259v374z" />
    <glyph glyph-name="five" unicode="5" 
d="M118 698h350v-54h-296l-44 -237c55 36 91 46 155 46c129 0 223 -88 223 -233c0 -148 -107 -234 -223 -234c-133 0 -237 51 -248 197h64c13 -95 82 -143 174 -143c105 0 169 80 169 180c0 105 -68 179 -175 179c-63 0 -114 -22 -153 -73l-53 7z" />
    <glyph glyph-name="six" unicode="6" 
d="M503 532h-66c-14 72 -59 119 -134 119c-173 0 -188 -186 -198 -319c40 54 82 110 185 110c142 0 224 -86 224 -227c0 -142 -83 -229 -226 -229c-141 0 -247 88 -247 337c0 167 49 382 256 382c111 0 193 -60 206 -173zM288 388c-99 0 -159 -80 -159 -175
c0 -79 44 -173 160 -173c119 0 161 92 161 177c0 109 -52 171 -162 171z" />
    <glyph glyph-name="seven" unicode="7" 
d="M59 634v64h449v-60c-202 -228 -278 -500 -286 -638h-70c14 204 144 468 279 634h-372z" />
    <glyph glyph-name="eight" unicode="8" 
d="M279 345c-98 0 -171 -47 -171 -151c0 -87 68 -154 175 -154c93 0 165 64 165 158c0 99 -75 147 -169 147zM276 651c-79 0 -143 -44 -143 -127c0 -87 72 -125 150 -125c77 0 136 39 136 139c0 71 -46 113 -143 113zM167 379c-68 43 -98 70 -98 154c0 97 92 172 201 172
c108 0 213 -51 213 -172c0 -73 -29 -125 -96 -158c77 -28 125 -93 125 -175c0 -138 -98 -214 -248 -214c-102 0 -220 70 -220 208c0 84 43 154 123 185z" />
    <glyph glyph-name="nine" unicode="9" 
d="M53 155h65c15 -75 59 -115 137 -115c167 0 190 186 196 313l-2 2c-43 -71 -106 -110 -190 -110c-132 0 -218 90 -218 227c0 133 73 233 227 233c190 0 247 -159 247 -356c0 -239 -108 -363 -257 -363c-110 0 -194 54 -205 169zM268 651c-107 0 -163 -71 -163 -181
c0 -107 60 -171 163 -171c100 0 158 80 158 175c0 104 -58 177 -158 177z" />
    <glyph glyph-name="colon" unicode=":" horiz-adv-x="278" 
d="M175 0h-73v88h73v-88zM175 404h-73v88h73v-88z" />
    <glyph glyph-name="semicolon" unicode=";" horiz-adv-x="278" 
d="M102 88h73v-118c0 -58 -31 -94 -73 -107v37c16 10 34 26 34 66v34h-34v88zM175 404h-73v88h73v-88z" />
    <glyph glyph-name="less" unicode="&#x3c;" horiz-adv-x="660" 
d="M159 255l421 -197v-64l-500 235v53l500 223v-64z" />
    <glyph glyph-name="equal" unicode="=" horiz-adv-x="660" 
d="M580 378v-60h-500v60h500zM580 184v-60h-500v60h500z" />
    <glyph glyph-name="greater" unicode="&#x3e;" horiz-adv-x="660" 
d="M580 282v-53l-500 -235v64l421 197l-421 186v64z" />
    <glyph glyph-name="question" unicode="?" horiz-adv-x="500" 
d="M283 182h-58c0 73 3 131 55 186c58 61 137 114 137 188c0 72 -57 129 -156 129c-98 0 -153 -73 -153 -169h-61c0 133 86 223 216 223c136 0 218 -75 218 -188c0 -116 -114 -161 -177 -250c-17 -24 -21 -79 -21 -119zM292 0h-73v88h73v-88z" />
    <glyph glyph-name="at" unicode="@" horiz-adv-x="800" 
d="M684 167h59c-63 -116 -193 -186 -324 -186c-214 0 -379 171 -379 382c0 208 172 376 375 376c192 0 345 -133 345 -316c0 -158 -126 -290 -233 -290c-35 0 -74 14 -86 50c-30 -31 -77 -50 -119 -50c-86 0 -139 68 -139 150c0 134 100 303 248 303c47 0 92 -23 112 -66
l15 46h67c-108 -322 -113 -341 -113 -355c0 -17 7 -28 29 -28c83 0 159 137 159 243c0 163 -132 263 -283 263c-185 0 -317 -152 -317 -333s139 -325 319 -325c103 0 205 50 265 136zM337 196c91 0 165 168 165 258c0 39 -28 73 -69 73c-106 0 -174 -148 -174 -239
c0 -48 27 -92 78 -92z" />
    <glyph glyph-name="A" unicode="A" horiz-adv-x="651" 
d="M288 720h77l276 -720h-70l-83 226h-328l-85 -226h-70zM324 662l-141 -378h282z" />
    <glyph glyph-name="B" unicode="B" horiz-adv-x="663" 
d="M149 344v-286h173c150 0 220 20 220 145c0 119 -84 141 -212 141h-181zM149 662v-260h172c142 0 188 50 188 137c0 90 -54 123 -203 123h-157zM81 0v720h260c169 0 236 -73 236 -181c0 -100 -57 -145 -115 -155v-2c99 -15 148 -84 148 -179c0 -150 -98 -203 -235 -203
h-294z" />
    <glyph glyph-name="C" unicode="C" horiz-adv-x="727" 
d="M667 511h-70c-28 123 -104 170 -227 170c-174 0 -249 -149 -249 -319c0 -161 59 -323 255 -323c124 0 201 84 228 198h71c-32 -139 -119 -256 -312 -256c-222 0 -310 175 -310 379c0 275 144 379 335 379c148 0 256 -79 279 -228z" />
    <glyph glyph-name="D" unicode="D" horiz-adv-x="722" 
d="M81 0v720h246c80 0 155 -5 222 -54c95 -69 120 -209 120 -305c0 -95 -21 -201 -87 -273c-66 -74 -160 -88 -255 -88h-246zM149 662v-604h163c61 0 114 4 169 33c96 49 120 172 120 270c0 105 -23 220 -124 274c-43 23 -105 27 -165 27h-163z" />
    <glyph glyph-name="E" unicode="E" horiz-adv-x="611" 
d="M81 720h479v-58h-411v-251h371v-58h-371v-295h421v-58h-489v720z" />
    <glyph glyph-name="F" unicode="F" horiz-adv-x="563" 
d="M81 720h464v-58h-396v-251h360v-58h-360v-353h-68v720z" />
    <glyph glyph-name="G" unicode="G" horiz-adv-x="776" 
d="M687 511h-70c-24 108 -119 170 -226 170c-190 0 -270 -140 -270 -344c0 -159 96 -298 261 -298c139 0 248 91 248 275h-243v58h308v-372h-58v123c-50 -86 -127 -142 -269 -142c-182 0 -315 127 -315 383c0 211 106 375 333 375c151 0 270 -74 301 -228z" />
    <glyph glyph-name="H" unicode="H" horiz-adv-x="724" 
d="M149 720v-309h426v309h68v-720h-68v353h-426v-353h-68v720h68z" />
    <glyph glyph-name="I" unicode="I" horiz-adv-x="230" 
d="M149 720v-720h-68v720h68z" />
    <glyph glyph-name="J" unicode="J" horiz-adv-x="500" 
d="M351 720h68v-523c0 -139 -64 -216 -203 -216c-162 0 -190 119 -190 247h68c0 -89 4 -185 130 -185c93 0 127 55 127 156v521z" />
    <glyph glyph-name="K" unicode="K" horiz-adv-x="663" 
d="M149 720v-363l357 363h89l-284 -287l334 -433h-83l-300 391l-113 -113v-278h-68v720h68z" />
    <glyph glyph-name="L" unicode="L" 
d="M149 720v-662h386v-58h-454v720h68z" />
    <glyph glyph-name="M" unicode="M" horiz-adv-x="839" 
d="M81 720h104l236 -635h2l232 635h103v-720h-68v642h-2l-236 -642h-64l-237 642h-2v-642h-68v720z" />
    <glyph glyph-name="N" unicode="N" horiz-adv-x="725" 
d="M81 720h77l416 -629h2v629h68v-720h-79l-414 628h-2v-628h-68v720z" />
    <glyph glyph-name="O" unicode="O" horiz-adv-x="777" 
d="M53 359c0 209 117 380 332 380c225 0 339 -169 339 -380c0 -207 -114 -378 -336 -378s-335 171 -335 378zM389 39c187 0 267 152 267 320c0 200 -103 322 -269 322c-185 0 -266 -155 -266 -322c0 -170 80 -320 268 -320z" />
    <glyph glyph-name="P" unicode="P" horiz-adv-x="632" 
d="M149 318v-318h-68v720h258c187 0 240 -93 240 -201c0 -161 -127 -201 -260 -201h-170zM149 662v-286h150c128 0 212 22 212 141c0 125 -70 145 -220 145h-142z" />
    <glyph glyph-name="Q" unicode="Q" horiz-adv-x="777" 
d="M616 68l96 -74l-38 -46l-106 82c-49 -31 -109 -49 -180 -49c-222 0 -335 171 -335 378c0 200 108 380 332 380c202 0 339 -135 339 -380c0 -116 -36 -221 -108 -291zM469 181l97 -74c61 58 90 152 90 252c0 215 -115 322 -269 322c-185 0 -266 -156 -266 -322
c0 -171 80 -320 268 -320c50 0 92 12 126 32l-82 63z" />
    <glyph glyph-name="R" unicode="R" horiz-adv-x="680" 
d="M149 662v-277h212c101 0 179 42 179 143c0 108 -84 134 -175 134h-216zM149 327v-327h-68v720h282c158 0 245 -56 245 -189c0 -91 -34 -139 -117 -176c83 -28 92 -119 92 -195c0 -90 13 -145 30 -153v-7h-75c-15 26 -23 96 -23 152c0 156 -55 175 -152 175h-214z" />
    <glyph glyph-name="S" unicode="S" horiz-adv-x="627" 
d="M43 215h66c11 -129 97 -176 207 -176c129 0 183 70 183 149c0 223 -439 75 -439 358c0 100 83 193 244 193c162 0 242 -97 242 -215h-65c0 110 -85 157 -177 157c-125 0 -178 -70 -178 -138c0 -217 441 -63 441 -352c0 -132 -97 -210 -263 -210c-150 0 -261 78 -261 234z
" />
    <glyph glyph-name="T" unicode="T" 
d="M312 662v-662h-68v662h-228v58h524v-58h-228z" />
    <glyph glyph-name="U" unicode="U" horiz-adv-x="720" 
d="M81 720h68v-429c0 -178 64 -252 211 -252c155 0 211 82 211 252v429h68v-449c0 -187 -93 -290 -279 -290c-188 0 -279 106 -279 290v449z" />
    <glyph glyph-name="V" unicode="V" horiz-adv-x="611" 
d="M18 720h71l217 -640l216 640h71l-250 -720h-75z" />
    <glyph glyph-name="W" unicode="W" horiz-adv-x="889" 
d="M14 720h68l155 -624h2l167 624h76l164 -624h2l157 624h70l-189 -720h-75l-167 636h-2l-167 -636h-75z" />
    <glyph glyph-name="X" unicode="X" horiz-adv-x="611" 
d="M28 720h79l197 -303l198 303h79l-236 -350l247 -370h-78l-210 318l-209 -318h-77l248 370z" />
    <glyph glyph-name="Y" unicode="Y" horiz-adv-x="611" 
d="M12 720h78l212 -347l217 347h79l-261 -406v-314h-68v309z" />
    <glyph glyph-name="Z" unicode="Z" horiz-adv-x="611" 
d="M70 720h506v-57l-461 -605h464v-58h-548v57l461 605h-422v58z" />
    <glyph glyph-name="bracketleft" unicode="[" horiz-adv-x="333" 
d="M91 739h191v-50h-127v-830h127v-50h-191v930z" />
    <glyph glyph-name="backslash" unicode="\" horiz-adv-x="278" 
d="M264 0l-310 739h60l310 -739h-60z" />
    <glyph glyph-name="bracketright" unicode="]" horiz-adv-x="333" 
d="M51 739h191v-930h-191v50h127v830h-127v50z" />
    <glyph glyph-name="asciicircum" unicode="^" horiz-adv-x="660" 
d="M131 245h-58l230 453h52l231 -453h-57l-201 392z" />
    <glyph glyph-name="underscore" unicode="_" horiz-adv-x="500" 
d="M500 -119h-500v58h500v-58z" />
    <glyph glyph-name="grave" unicode="`" horiz-adv-x="333" 
d="M183 574l-138 139h78l111 -139h-51z" />
    <glyph glyph-name="a" unicode="a" horiz-adv-x="558" 
d="M413 272c-26 -14 -81 -24 -155 -29c-91 -6 -146 -40 -146 -110c0 -63 55 -93 112 -93c95 0 189 46 189 151v81zM133 361h-61c9 122 100 171 213 171c105 0 188 -41 188 -161v-282c0 -33 6 -49 27 -49c8 0 21 4 36 9v-47c-15 -5 -36 -10 -47 -10c-49 0 -70 16 -76 80h-2
c-46 -55 -115 -86 -190 -86c-91 0 -173 49 -173 149c0 87 60 140 181 156l115 15c51 7 69 20 69 67c0 61 -36 105 -129 105c-83 0 -140 -27 -151 -117z" />
    <glyph glyph-name="b" unicode="b" horiz-adv-x="596" 
d="M307 478c-104 0 -175 -80 -175 -226c0 -112 62 -212 175 -212c101 0 177 92 177 210c0 125 -53 228 -177 228zM132 91v-91h-60v720h60v-285c38 63 112 97 185 97c158 0 231 -129 231 -274c0 -153 -67 -272 -234 -272c-66 0 -145 37 -180 105h-2z" />
    <glyph glyph-name="c" unicode="c" horiz-adv-x="557" 
d="M501 355h-61c-21 77 -74 123 -154 123c-123 0 -174 -112 -174 -220c0 -109 50 -218 174 -218c89 0 145 53 159 139h64c-21 -115 -93 -193 -223 -193c-165 0 -238 119 -238 272c0 144 83 274 238 274c119 0 197 -57 215 -177z" />
    <glyph glyph-name="d" unicode="d" horiz-adv-x="596" 
d="M287 478c-104 0 -175 -80 -175 -226c0 -112 62 -212 175 -212c101 0 177 92 177 210c0 125 -53 228 -177 228zM464 435v285h60v-720h-60v91h-2c-35 -68 -114 -105 -180 -105c-167 0 -234 119 -234 272c0 145 73 274 231 274c73 0 147 -34 185 -97z" />
    <glyph glyph-name="e" unicode="e" horiz-adv-x="562" 
d="M112 295h338c0 101 -56 183 -164 183c-106 0 -162 -85 -174 -183zM514 245h-402c0 -111 59 -205 174 -205c78 0 139 43 157 119h67c-30 -98 -92 -173 -224 -173c-166 0 -238 118 -238 271c0 151 90 275 238 275c142 0 228 -100 228 -287z" />
    <glyph glyph-name="f" unicode="f" horiz-adv-x="278" 
d="M97 468h-77v50h77v82c0 82 30 132 110 132c18 0 34 -1 50 -6v-51c-12 3 -25 5 -36 5c-62 0 -64 -51 -64 -98v-64h100v-50h-100v-468h-60v468z" />
    <glyph glyph-name="g" unicode="g" horiz-adv-x="596" 
d="M287 478c-104 0 -175 -80 -175 -226c0 -112 62 -212 175 -212c101 0 177 92 177 210c0 125 -53 228 -177 228zM464 518h60v-468c0 -139 -46 -262 -243 -262c-152 0 -215 87 -219 149h64c18 -78 84 -95 155 -95c164 0 183 123 183 241c-38 -63 -112 -97 -185 -97
c-158 0 -231 129 -231 274c0 153 67 272 234 272c66 0 145 -37 180 -105h2v91z" />
    <glyph glyph-name="h" unicode="h" horiz-adv-x="555" 
d="M132 720v-274c48 51 95 86 167 86c113 0 184 -61 184 -193v-339h-60v338c0 93 -38 140 -134 140c-112 0 -157 -95 -157 -194v-284h-60v720h60z" />
    <glyph glyph-name="i" unicode="i" horiz-adv-x="204" 
d="M132 518v-518h-60v518h60zM132 631h-60v89h60v-89z" />
    <glyph glyph-name="j" unicode="j" horiz-adv-x="220" 
d="M88 518h60v-587c0 -88 -8 -135 -104 -135c-13 0 -26 1 -39 4v53c7 -1 22 -2 25 -2c46 0 58 25 58 72v595zM148 631h-60v89h60v-89z" />
    <glyph glyph-name="k" unicode="k" horiz-adv-x="504" 
d="M132 720v-448l254 246h82l-194 -187l217 -331h-67l-194 289l-98 -93v-196h-60v720h60z" />
    <glyph glyph-name="l" unicode="l" horiz-adv-x="204" 
d="M132 720v-720h-60v720h60z" />
    <glyph glyph-name="m" unicode="m" horiz-adv-x="848" 
d="M132 518v-78h2c31 59 93 92 160 92c96 0 130 -45 152 -100c34 67 95 100 169 100c141 0 161 -101 161 -205v-327h-60v358c0 74 -26 120 -111 120c-98 0 -151 -80 -151 -199v-279h-60v358c0 74 -26 120 -111 120c-106 0 -151 -94 -151 -199v-279h-60v518h60z" />
    <glyph glyph-name="n" unicode="n" horiz-adv-x="555" 
d="M132 518v-72c48 51 95 86 167 86c113 0 184 -61 184 -193v-339h-60v338c0 93 -38 140 -134 140c-112 0 -157 -95 -157 -194v-284h-60v518h60z" />
    <glyph glyph-name="o" unicode="o" horiz-adv-x="576" 
d="M288 532c162 0 240 -121 240 -273c0 -164 -95 -273 -240 -273c-132 0 -240 92 -240 273c0 151 80 273 240 273zM288 478c-126 0 -176 -107 -176 -219c0 -129 61 -219 176 -219c126 0 176 108 176 219c0 122 -49 219 -176 219z" />
    <glyph glyph-name="p" unicode="p" horiz-adv-x="596" 
d="M307 478c-104 0 -175 -80 -175 -226c0 -112 62 -212 175 -212c101 0 177 92 177 210c0 125 -53 228 -177 228zM132 83v-287h-60v722h60v-91h2c35 68 114 105 180 105c167 0 234 -119 234 -272c0 -145 -73 -274 -231 -274c-73 0 -147 34 -185 97z" />
    <glyph glyph-name="q" unicode="q" horiz-adv-x="596" 
d="M287 478c-104 0 -175 -80 -175 -226c0 -112 62 -212 175 -212c101 0 177 92 177 210c0 125 -53 228 -177 228zM464 518h60v-722h-60v287c-38 -63 -112 -97 -185 -97c-158 0 -231 129 -231 274c0 153 67 272 234 272c66 0 145 -37 180 -105h2v91z" />
    <glyph glyph-name="r" unicode="r" horiz-adv-x="330" 
d="M132 518v-97h2c33 83 82 111 169 111v-65c-135 0 -171 -97 -171 -213v-254h-60v518h60z" />
    <glyph glyph-name="s" unicode="s" horiz-adv-x="492" 
d="M112 389c0 -141 332 -53 332 -252c0 -99 -89 -151 -211 -151s-192 78 -197 176h61c19 -89 65 -122 155 -122c87 0 128 46 128 96c0 150 -332 44 -332 248c0 86 67 148 182 148c112 0 185 -46 200 -163h-61c-11 80 -65 109 -140 109c-76 0 -117 -36 -117 -89z" />
    <glyph glyph-name="t" unicode="t" horiz-adv-x="278" 
d="M254 47v-49c-14 -3 -40 -12 -69 -12c-59 0 -92 26 -92 103v379h-73v50h73v144h60v-144h97v-50h-97v-355c0 -51 2 -73 52 -73c16 0 33 3 49 7z" />
    <glyph glyph-name="u" unicode="u" horiz-adv-x="555" 
d="M72 518h60v-340c0 -89 39 -138 133 -138c99 0 158 82 158 196v282h60v-518h-60v72h-1c-39 -48 -88 -86 -166 -86c-138 0 -184 83 -184 191v341z" />
    <glyph glyph-name="v" unicode="v" horiz-adv-x="500" 
d="M17 518h65l168 -444l168 444h65l-201 -518h-67z" />
    <glyph glyph-name="w" unicode="w" horiz-adv-x="722" 
d="M15 518h60l134 -442l120 442h67l114 -438l136 438h61l-168 -518h-64l-113 435h-2l-115 -435h-72z" />
    <glyph glyph-name="x" unicode="x" horiz-adv-x="500" 
d="M34 518h74l143 -206l147 206h76l-187 -250l194 -268h-72l-157 224l-161 -224h-73l199 268z" />
    <glyph glyph-name="y" unicode="y" horiz-adv-x="490" 
d="M18 518h67l166 -445l166 445h65l-193 -511c-49 -130 -81 -211 -164 -211c-21 0 -41 3 -57 7v56c16 -3 33 -6 50 -6c40 0 61 28 101 143z" />
    <glyph glyph-name="z" unicode="z" horiz-adv-x="500" 
d="M56 518h398v-53l-344 -415h357v-50h-434v53l344 415h-321v50z" />
    <glyph glyph-name="braceleft" unicode="{" horiz-adv-x="333" 
d="M285 743v-2c-63 -18 -88 -54 -88 -121v-206c0 -75 -16 -120 -82 -135v-2c70 -19 82 -72 82 -149v-192c0 -59 20 -105 86 -122v-1c-119 0 -150 42 -150 162v182c0 66 -8 99 -82 120v2c68 13 82 55 82 116v204c0 102 33 144 152 144z" />
    <glyph glyph-name="bar" unicode="|" horiz-adv-x="222" 
d="M81 0v739h60v-739h-60z" />
    <glyph glyph-name="braceright" unicode="}" horiz-adv-x="333" 
d="M51 741v2c119 0 152 -42 152 -144v-204c0 -61 14 -103 82 -116v-2c-74 -21 -82 -54 -82 -120v-182c0 -120 -31 -162 -150 -162v1c66 17 86 63 86 122v192c0 77 12 130 82 149v2c-66 15 -82 60 -82 135v206c0 67 -25 103 -88 121z" />
    <glyph glyph-name="asciitilde" unicode="~" horiz-adv-x="660" 
d="M221 324c75 0 164 -72 220 -72c45 0 80 51 99 87l40 -34c-28 -54 -73 -109 -140 -109c-64 0 -173 72 -219 72c-44 0 -75 -37 -108 -94l-33 47c29 43 70 103 141 103z" />
    <glyph glyph-name="afii10051" unicode="&#x402;" horiz-adv-x="778" 
d="M312 662v-257c23 3 113 6 144 6c207 0 266 -99 266 -212c0 -147 -100 -199 -240 -199h-83v58h30c162 0 225 30 225 139c0 115 -67 156 -221 156c-47 0 -101 -4 -121 -8v-345h-68v662h-228v58h524v-58h-228z" />
    <glyph glyph-name="afii10052" unicode="&#x403;" horiz-adv-x="563" 
d="M81 720h464v-58h-396v-662h-68v720zM327 788h-60l132 166h92z" />
    <glyph glyph-name="quotesinglbase" unicode="&#x201a;" horiz-adv-x="278" 
d="M102 88h73v-118c0 -58 -31 -94 -73 -107v37c16 10 34 26 34 66v34h-34v88z" />
    <glyph glyph-name="afii10100" unicode="&#x453;" horiz-adv-x="404" 
d="M72 518h320v-50h-260v-468h-60v518zM228 575h-46l100 125h70z" />
    <glyph glyph-name="quotedblbase" unicode="&#x201e;" horiz-adv-x="389" 
d="M230 88h73v-118c0 -58 -31 -94 -73 -107v37c16 10 34 26 34 66v34h-34v88zM79 88h73v-118c0 -58 -31 -94 -73 -107v37c16 10 34 26 34 66v34h-34v88z" />
    <glyph glyph-name="ellipsis" unicode="&#x2026;" horiz-adv-x="1000" 
d="M204 0h-73v88h73v-88zM537 0h-73v88h73v-88zM870 0h-73v88h73v-88z" />
    <glyph glyph-name="dagger" unicode="&#x2020;" 
d="M248 720h60v-230h211v-54h-211v-602h-60v602h-211v54h211v230z" />
    <glyph glyph-name="daggerdbl" unicode="&#x2021;" 
d="M184 365h166v-42h-151c6 -21 10 -47 10 -69c0 -75 -46 -137 -95 -187l2 -2c25 13 57 27 89 27c85 0 120 -42 183 -42c47 0 77 27 108 57l34 -51c-59 -54 -94 -70 -174 -70c-49 0 -98 44 -177 44c-38 0 -72 -18 -105 -33l-35 58c58 42 106 106 106 180c0 31 -7 60 -21 88
h-99v42h81c-17 37 -53 77 -53 157c0 105 75 183 223 183c132 0 227 -83 227 -217h-66c-4 105 -65 163 -160 163c-80 0 -160 -43 -160 -132c0 -60 40 -103 67 -154z" />
    <glyph glyph-name="perthousand" unicode="&#x2030;" horiz-adv-x="1287" 
d="M658 331c91 0 166 -75 166 -166s-75 -165 -166 -165s-165 75 -165 165s74 166 165 166zM658 274c-59 0 -108 -50 -108 -109s50 -108 108 -108s109 50 109 108s-50 109 -109 109zM232 698c91 0 166 -75 166 -166s-75 -165 -166 -165s-165 75 -165 165s74 166 165 166z
M232 641c-59 0 -108 -50 -108 -109s50 -108 108 -108s109 50 109 108s-50 109 -109 109zM668 705l-397 -719h-52l397 719h52zM1054 331c91 0 166 -75 166 -166s-75 -165 -166 -165s-165 75 -165 165s74 166 165 166zM1054 274c-59 0 -108 -50 -108 -109s50 -108 108 -108
s109 50 109 108s-50 109 -109 109z" />
    <glyph glyph-name="afii10058" unicode="&#x409;" horiz-adv-x="1029" 
d="M134 720h412v-309h171c133 0 259 -49 259 -210c0 -108 -53 -201 -240 -201h-258v662h-276v-312c0 -261 -43 -364 -133 -364c-19 0 -31 2 -53 8v55c14 -3 34 -5 47 -5c47 0 71 106 71 357v319zM546 353v-295h142c150 0 220 20 220 145c0 119 -90 150 -211 150h-151z" />
    <glyph glyph-name="guilsinglleft" unicode="&#x2039;" horiz-adv-x="389" 
d="M121 228v63l146 113v-63l-104 -82l104 -80v-62z" />
    <glyph glyph-name="afii10059" unicode="&#x40a;" horiz-adv-x="1041" 
d="M149 720v-309h341v309h68v-309h171c133 0 259 -49 259 -210c0 -108 -53 -201 -240 -201h-258v353h-341v-353h-68v720h68zM558 353v-295h142c150 0 220 20 220 145c0 119 -90 150 -211 150h-151z" />
    <glyph glyph-name="afii10061" unicode="&#x40c;" horiz-adv-x="663" 
d="M149 720v-363l357 363h89l-284 -287l334 -433h-83l-300 391l-113 -113v-278h-68v720h68zM308 786h-60l132 166h92z" />
    <glyph glyph-name="afii10060" unicode="&#x40b;" horiz-adv-x="778" 
d="M312 662v-257c23 3 113 6 144 6c207 0 266 -99 266 -212v-199h-68v197c0 115 -67 156 -221 156c-47 0 -101 -4 -121 -8v-345h-68v662h-228v58h524v-58h-228z" />
    <glyph glyph-name="afii10145" unicode="&#x40f;" horiz-adv-x="724" 
d="M149 720v-662h426v662h68v-720h-247v-165h-68v165h-247v720h68z" />
    <glyph glyph-name="afii10099" unicode="&#x452;" horiz-adv-x="555" 
d="M72 720h60v-76h169v-54h-169v-144c44 47 95 86 167 86c124 0 188 -54 188 -228c0 -321 -88 -395 -253 -413v54c143 16 189 88 189 378c0 102 -27 155 -134 155c-116 0 -157 -103 -157 -183v-295h-60v590h-67v54h67v76z" />
    <glyph glyph-name="quoteleft" unicode="&#x2018;" horiz-adv-x="222" 
d="M142 495h-73v118c0 58 31 94 73 107v-37c-16 -10 -34 -26 -34 -66v-34h34v-88z" />
    <glyph glyph-name="quoteright" unicode="&#x2019;" horiz-adv-x="222" 
d="M80 720h73v-118c0 -58 -31 -94 -73 -107v37c16 10 34 26 34 66v34h-34v88z" />
    <glyph glyph-name="quotedblleft" unicode="&#x201c;" horiz-adv-x="389" 
d="M310 495h-73v118c0 58 31 94 73 107v-37c-16 -10 -34 -26 -34 -66v-34h34v-88zM159 495h-73v118c0 58 31 94 73 107v-37c-16 -10 -34 -26 -34 -66v-34h34v-88z" />
    <glyph glyph-name="quotedblright" unicode="&#x201d;" horiz-adv-x="389" 
d="M230 720h73v-118c0 -58 -31 -94 -73 -107v37c16 10 34 26 34 66v34h-34v88zM79 720h73v-118c0 -58 -31 -94 -73 -107v37c16 10 34 26 34 66v34h-34v88z" />
    <glyph glyph-name="bullet" unicode="&#x2022;" horiz-adv-x="500" 
d="M430 359c0 -98 -81 -179 -181 -179c-98 0 -179 81 -179 179c0 100 81 181 179 181c100 0 181 -81 181 -181z" />
    <glyph glyph-name="endash" unicode="&#x2013;" horiz-adv-x="500" 
d="M500 280v-60h-500v60h500z" />
    <glyph glyph-name="emdash" unicode="&#x2014;" horiz-adv-x="1000" 
d="M1000 220h-1000v60h1000v-60z" />
    <glyph glyph-name="trademark" unicode="&#x2122;" horiz-adv-x="940" 
d="M427 720h96l120 -311h2l118 311h96v-421h-52v377h-2l-145 -377h-34l-145 377h-2v-377h-52v421zM29 720h320v-40h-134v-381h-52v381h-134v40z" />
    <glyph glyph-name="afii10106" unicode="&#x459;" horiz-adv-x="824" 
d="M111 518h333v-217h152c111 0 180 -63 180 -152c0 -138 -131 -149 -172 -149h-220v468h-213v-97c0 -72 -4 -171 -10 -221c-12 -103 -46 -154 -110 -154c-13 0 -31 2 -44 7v49c12 -3 30 -4 36 -4c15 0 30 11 43 34c19 33 25 129 25 436zM444 251v-201h135
c90 0 133 37 133 99c0 64 -52 102 -120 102h-148z" />
    <glyph glyph-name="guilsinglright" unicode="&#x203a;" horiz-adv-x="389" 
d="M268 293v-63l-146 -113v63l104 82l-104 80v62z" />
    <glyph glyph-name="afii10107" unicode="&#x45a;" horiz-adv-x="835" 
d="M135 518v-217h260v217h60v-217h152c111 0 180 -63 180 -152c0 -138 -131 -149 -172 -149h-220v251h-260v-251h-60v518h60zM455 251v-201h135c90 0 133 37 133 99c0 64 -52 102 -120 102h-148z" />
    <glyph glyph-name="afii10109" unicode="&#x45c;" horiz-adv-x="504" 
d="M132 518v-246l254 246h82l-194 -187l217 -331h-67l-194 289l-98 -93v-196h-60v518h60zM273 575h-46l100 125h70z" />
    <glyph glyph-name="afii10108" unicode="&#x45b;" horiz-adv-x="555" 
d="M72 720h60v-76h169v-54h-169v-144c48 51 95 86 167 86c113 0 184 -61 184 -193v-339h-60v338c0 93 -38 140 -134 140c-112 0 -157 -95 -157 -194v-284h-60v590h-67v54h67v76z" />
    <glyph glyph-name="afii10193" unicode="&#x45f;" horiz-adv-x="552" 
d="M132 518v-468h288v468h60v-518h-174v-136h-60v136h-174v518h60z" />
    <glyph glyph-name="afii10062" unicode="&#x40e;" horiz-adv-x="580" 
d="M4 720h71l214 -521l220 521h75l-273 -627c-37 -84 -73 -112 -148 -112c-15 0 -31 2 -42 5v57c8 -2 24 -4 38 -4c44 0 62 15 79 51l14 29zM173 929h39c11 -55 50 -81 105 -81c56 0 93 25 107 81h37c-9 -84 -67 -126 -149 -126c-79 0 -133 47 -139 126z" />
    <glyph glyph-name="afii10110" unicode="&#x45e;" horiz-adv-x="490" 
d="M18 518h67l166 -445l166 445h65l-193 -511c-49 -130 -81 -211 -164 -211c-21 0 -41 3 -57 7v56c16 -3 33 -6 50 -6c40 0 61 28 101 143zM122 697h39c11 -55 50 -81 105 -81c56 0 93 25 107 81h37c-9 -84 -67 -126 -149 -126c-79 0 -133 47 -139 126z" />
    <glyph glyph-name="afii10057" unicode="&#x408;" horiz-adv-x="500" 
d="M351 720h68v-523c0 -139 -64 -216 -203 -216c-162 0 -190 119 -190 247h68c0 -89 4 -185 130 -185c93 0 127 55 127 156v521z" />
    <glyph glyph-name="currency" unicode="&#xa4;" 
d="M32 110l43 42c-32 47 -48 91 -48 148c0 59 14 103 48 151l-43 43l52 53l44 -43c45 34 98 49 154 49c55 0 101 -18 146 -49l44 43l52 -53l-43 -43c34 -49 48 -95 48 -156c0 -56 -17 -97 -48 -143l43 -42l-52 -53l-44 43c-45 -33 -98 -50 -155 -50c-55 0 -101 19 -145 50
l-44 -43zM282 481c-104 0 -183 -77 -183 -181c0 -98 81 -178 177 -178c100 0 181 79 181 181c0 95 -78 178 -175 178z" />
    <glyph glyph-name="afii10050" unicode="&#x490;" horiz-adv-x="563" 
d="M81 720h396v130h68v-188h-396v-662h-68v720z" />
    <glyph glyph-name="brokenbar" unicode="&#xa6;" horiz-adv-x="222" 
d="M81 0v296h60v-296h-60zM81 443v296h60v-296h-60z" />
    <glyph glyph-name="section" unicode="&#xa7;" 
d="M190 447c-53 -22 -88 -55 -88 -104c0 -51 46 -85 85 -111l178 -115c44 24 89 58 89 113c0 53 -51 87 -91 111zM456 560h-54c0 84 -39 125 -124 125c-63 0 -112 -31 -112 -97c0 -137 342 -174 342 -348c0 -77 -52 -117 -110 -156c34 -29 58 -66 58 -110
c0 -102 -80 -155 -176 -155c-113 0 -185 75 -185 181h60c0 -82 43 -127 126 -127c56 0 111 32 111 94c0 61 -59 102 -111 135l-131 82c-63 39 -102 83 -102 151c0 67 48 119 107 144c-31 35 -53 66 -53 115c0 78 63 145 181 145c111 0 173 -70 173 -179z" />
    <glyph glyph-name="afii10023" unicode="&#x401;" horiz-adv-x="611" 
d="M81 720h479v-58h-411v-251h371v-58h-371v-295h421v-58h-489v720zM264 786h-60v89h60v-89zM423 786h-60v89h60v-89z" />
    <glyph glyph-name="copyright" unicode="&#xa9;" horiz-adv-x="800" 
d="M401 -19c-210 0 -380 170 -380 380c0 208 170 378 380 378c209 0 378 -170 378 -378c0 -210 -169 -380 -378 -380zM401 31c184 0 318 144 318 330c0 184 -134 328 -318 328c-185 0 -320 -144 -320 -328c0 -186 135 -330 320 -330zM539 292h54c-9 -91 -88 -147 -175 -147
c-127 0 -210 95 -210 219c0 125 78 217 207 217c91 0 164 -52 178 -143h-54c-11 60 -63 99 -123 99c-100 0 -150 -78 -150 -172c0 -91 54 -176 152 -176c59 0 113 40 121 103z" />
    <glyph glyph-name="afii10053" unicode="&#x404;" horiz-adv-x="722" 
d="M662 511h-70c-28 123 -104 170 -227 170c-160 0 -249 -129 -249 -270h308v-58h-308c0 -164 66 -314 255 -314c124 0 201 84 228 198h71c-32 -139 -119 -256 -312 -256c-222 0 -310 175 -310 379c0 275 144 379 335 379c148 0 256 -79 279 -228z" />
    <glyph glyph-name="guillemotleft" unicode="&#xab;" 
d="M297 228v63l146 113v-63l-104 -82l104 -80v-62zM113 228v63l146 113v-63l-104 -82l104 -80v-62z" />
    <glyph glyph-name="logicalnot" unicode="&#xac;" horiz-adv-x="660" 
d="M516 14v206h-436v60h500v-266h-64z" />
    <glyph glyph-name="hyphen_" horiz-adv-x="333" 
d="M40 280h253v-60h-253v60z" />
    <glyph glyph-name="registered" unicode="&#xae;" horiz-adv-x="800" 
d="M401 -19c-210 0 -380 170 -380 380c0 208 170 378 380 378c209 0 378 -170 378 -378c0 -210 -169 -380 -378 -380zM401 31c184 0 318 144 318 330c0 184 -134 328 -318 328c-185 0 -320 -144 -320 -328c0 -186 135 -330 320 -330zM260 149v423h185
c112 0 150 -42 150 -112c0 -83 -56 -116 -133 -116l128 -195h-62l-121 195h-95v-195h-52zM312 535v-150h117c59 0 110 12 110 76c0 66 -54 74 -106 74h-121z" />
    <glyph glyph-name="afii10056" unicode="&#x407;" horiz-adv-x="230" 
d="M149 720v-720h-68v720h68zM60 786h-60v89h60v-89zM230 786h-60v89h60v-89z" />
    <glyph glyph-name="degree" unicode="&#xb0;" horiz-adv-x="400" 
d="M351 555c0 -83 -68 -150 -150 -150c-83 0 -150 67 -150 150c0 81 67 150 150 150c82 0 150 -68 150 -150zM311 555c0 60 -50 110 -111 110c-60 0 -109 -50 -109 -110c0 -61 49 -110 110 -110c60 0 110 49 110 110z" />
    <glyph glyph-name="plusminus" unicode="&#xb1;" horiz-adv-x="660" 
d="M300 422v170h60v-170h220v-60h-220v-170h-60v170h-220v60h220zM80 92v60h500v-60h-500z" />
    <glyph glyph-name="Icyril" horiz-adv-x="230" 
d="M149 720v-720h-68v720h68z" />
    <glyph glyph-name="afii10103" unicode="&#x456;" horiz-adv-x="204" 
d="M132 518v-518h-60v518h60zM132 631h-60v89h60v-89z" />
    <glyph glyph-name="afii10098" unicode="&#x491;" horiz-adv-x="404" 
d="M72 518h260v97h60v-147h-260v-468h-60v518z" />
    <glyph glyph-name="mu" unicode="&#xb5;" horiz-adv-x="555" 
d="M72 518h60v-340c0 -89 39 -138 133 -138c99 0 158 82 158 196v282h60v-518h-60v72h-1c-40 -51 -89 -86 -166 -86c-56 0 -98 16 -124 32v-222h-60v722z" />
    <glyph glyph-name="mu" unicode="&#x3bc;" horiz-adv-x="555" 
d="M72 518h60v-340c0 -89 39 -138 133 -138c99 0 158 82 158 196v282h60v-518h-60v72h-1c-40 -51 -89 -86 -166 -86c-56 0 -98 16 -124 32v-222h-60v722z" />
    <glyph glyph-name="paragraph" unicode="&#xb6;" horiz-adv-x="650" 
d="M506 720v-866h-60v799h-128v-799h-60v482c-102 0 -192 87 -192 190c0 124 83 194 223 194h217z" />
    <glyph glyph-name="periodcentered" unicode="&#xb7;" horiz-adv-x="278" 
d="M139 398c26 0 48 -22 48 -48s-21 -49 -48 -49s-49 23 -49 49s24 48 49 48z" />
    <glyph glyph-name="periodcentered" unicode="&#x2219;" horiz-adv-x="278" 
d="M139 398c26 0 48 -22 48 -48s-21 -49 -48 -49s-49 23 -49 49s24 48 49 48z" />
    <glyph glyph-name="afii10071" unicode="&#x451;" horiz-adv-x="562" 
d="M112 295h338c0 101 -56 183 -164 183c-106 0 -162 -85 -174 -183zM514 245h-402c0 -111 59 -205 174 -205c78 0 139 43 157 119h67c-30 -98 -92 -173 -224 -173c-166 0 -238 118 -238 271c0 151 90 275 238 275c142 0 228 -100 228 -287zM240 597h-60v89h60v-89zM394 597
h-60v89h60v-89z" />
    <glyph glyph-name="afii61352" unicode="&#x2116;" horiz-adv-x="1079" 
d="M79 720h77l416 -629h2v629h68v-720h-79l-414 628h-2v-628h-68v720zM713 52v39h312v-39h-312zM752 320c0 -77 42 -134 117 -134c82 0 117 68 117 134c0 73 -34 134 -117 134c-82 0 -117 -67 -117 -134zM869 156c-86 0 -156 56 -156 164c0 91 52 164 156 164
c105 0 156 -73 156 -164c0 -98 -62 -164 -156 -164z" />
    <glyph glyph-name="afii10101" unicode="&#x454;" horiz-adv-x="557" 
d="M501 355h-61c-21 77 -74 123 -154 123c-109 0 -163 -90 -171 -177h203v-50h-206c0 -107 55 -211 174 -211c89 0 145 53 159 139h64c-21 -115 -93 -193 -223 -193c-165 0 -238 119 -238 272c0 144 83 274 238 274c119 0 197 -57 215 -177z" />
    <glyph glyph-name="guillemotright" unicode="&#xbb;" 
d="M443 293v-63l-146 -113v63l104 82l-104 80v62zM259 293v-63l-146 -113v63l104 82l-104 80v62z" />
    <glyph glyph-name="afii10105" unicode="&#x458;" horiz-adv-x="220" 
d="M88 518h60v-587c0 -88 -8 -135 -104 -135c-13 0 -26 1 -39 4v53c7 -1 22 -2 25 -2c46 0 58 25 58 72v595zM148 631h-60v89h60v-89z" />
    <glyph glyph-name="afii10054" unicode="&#x405;" horiz-adv-x="627" 
d="M43 215h66c11 -129 97 -176 207 -176c129 0 183 70 183 149c0 223 -439 75 -439 358c0 100 83 193 244 193c162 0 242 -97 242 -215h-65c0 110 -85 157 -177 157c-125 0 -178 -70 -178 -138c0 -217 441 -63 441 -352c0 -132 -97 -210 -263 -210c-150 0 -261 78 -261 234z
" />
    <glyph glyph-name="afii10102" unicode="&#x455;" horiz-adv-x="492" 
d="M112 389c0 -141 332 -53 332 -252c0 -99 -89 -151 -211 -151s-192 78 -197 176h61c19 -89 65 -122 155 -122c87 0 128 46 128 96c0 150 -332 44 -332 248c0 86 67 148 182 148c112 0 185 -46 200 -163h-61c-11 80 -65 109 -140 109c-76 0 -117 -36 -117 -89z" />
    <glyph glyph-name="afii10104" unicode="&#x457;" horiz-adv-x="204" 
d="M132 518v-518h-60v518h60zM60 610h-60v89h60v-89zM204 610h-60v89h60v-89z" />
    <glyph glyph-name="afii10017" unicode="&#x410;" horiz-adv-x="651" 
d="M288 720h77l276 -720h-70l-83 226h-328l-85 -226h-70zM324 662l-141 -378h282z" />
    <glyph glyph-name="afii10018" unicode="&#x411;" horiz-adv-x="632" 
d="M81 720h446v-58h-378v-251h171c133 0 259 -49 259 -210c0 -108 -53 -201 -240 -201h-258v720zM149 353v-295h142c150 0 220 20 220 145c0 119 -90 150 -211 150h-151z" />
    <glyph glyph-name="afii10019" unicode="&#x412;" horiz-adv-x="663" 
d="M149 344v-286h173c150 0 220 20 220 145c0 119 -84 141 -212 141h-181zM149 662v-260h172c142 0 188 50 188 137c0 90 -54 123 -203 123h-157zM81 0v720h260c169 0 236 -73 236 -181c0 -100 -57 -145 -115 -155v-2c99 -15 148 -84 148 -179c0 -150 -98 -203 -235 -203
h-294z" />
    <glyph glyph-name="afii10020" unicode="&#x413;" horiz-adv-x="563" 
d="M81 720h464v-58h-396v-662h-68v720z" />
    <glyph glyph-name="afii10021" unicode="&#x414;" horiz-adv-x="694" 
d="M162 720h451v-662h55v-223h-68v165h-506v-165h-68v223h53c54 115 83 185 83 402v260zM545 662h-315v-230c0 -171 -29 -272 -80 -374h395v604z" />
    <glyph glyph-name="afii10022" unicode="&#x415;" horiz-adv-x="611" 
d="M81 720h479v-58h-411v-251h371v-58h-371v-295h421v-58h-489v720z" />
    <glyph glyph-name="afii10024" unicode="&#x416;" horiz-adv-x="999" 
d="M534 720v-372l336 372h80l-274 -301l314 -419h-78l-281 373l-97 -107v-266h-68v266l-97 107l-281 -373h-78l314 419l-274 301h80l336 -372v372h68z" />
    <glyph glyph-name="afii10025" unicode="&#x417;" horiz-adv-x="637" 
d="M130 523h-67c0 129 85 215 242 215c145 0 252 -61 252 -185c0 -76 -31 -138 -112 -173c90 -25 139 -105 139 -184c0 -132 -86 -215 -269 -215c-155 0 -270 76 -270 234h66c11 -129 83 -176 207 -176c148 0 198 70 198 149c0 96 -67 165 -180 165h-59v58h44
c105 0 168 38 168 138c0 91 -85 131 -184 131c-95 0 -175 -44 -175 -157z" />
    <glyph glyph-name="afii10026" unicode="&#x418;" horiz-adv-x="725" 
d="M149 720v-629h2l416 629h77v-720h-68v628h-2l-414 -628h-79v720h68z" />
    <glyph glyph-name="afii10027" unicode="&#x419;" horiz-adv-x="725" 
d="M149 720v-629h2l416 629h77v-720h-68v628h-2l-414 -628h-79v720h68zM225 929h39c11 -55 50 -81 105 -81c56 0 93 25 107 81h37c-9 -84 -67 -126 -149 -126c-79 0 -133 47 -139 126z" />
    <glyph glyph-name="afii10028" unicode="&#x41a;" horiz-adv-x="663" 
d="M149 720v-363l357 363h89l-284 -287l334 -433h-83l-300 391l-113 -113v-278h-68v720h68z" />
    <glyph glyph-name="afii10029" unicode="&#x41b;" horiz-adv-x="694" 
d="M134 720h479v-720h-68v662h-343v-312c0 -261 -43 -364 -133 -364c-19 0 -31 2 -53 8v55c14 -3 34 -5 47 -5c47 0 71 106 71 357v319z" />
    <glyph glyph-name="afii10030" unicode="&#x41c;" horiz-adv-x="839" 
d="M81 720h104l236 -635h2l232 635h103v-720h-68v642h-2l-236 -642h-64l-237 642h-2v-642h-68v720z" />
    <glyph glyph-name="afii10031" unicode="&#x41d;" horiz-adv-x="724" 
d="M149 720v-309h426v309h68v-720h-68v353h-426v-353h-68v720h68z" />
    <glyph glyph-name="afii10032" unicode="&#x41e;" horiz-adv-x="777" 
d="M53 359c0 209 117 380 332 380c225 0 339 -169 339 -380c0 -207 -114 -378 -336 -378s-335 171 -335 378zM389 39c187 0 267 152 267 320c0 200 -103 322 -269 322c-185 0 -266 -155 -266 -322c0 -170 80 -320 268 -320z" />
    <glyph glyph-name="afii10033" unicode="&#x41f;" horiz-adv-x="724" 
d="M81 720h562v-720h-68v662h-426v-662h-68v720z" />
    <glyph glyph-name="afii10034" unicode="&#x420;" horiz-adv-x="632" 
d="M149 318v-318h-68v720h258c187 0 240 -93 240 -201c0 -161 -127 -201 -260 -201h-170zM149 662v-286h150c128 0 212 22 212 141c0 125 -70 145 -220 145h-142z" />
    <glyph glyph-name="afii10035" unicode="&#x421;" horiz-adv-x="727" 
d="M667 511h-70c-28 123 -104 170 -227 170c-174 0 -249 -149 -249 -319c0 -161 59 -323 255 -323c124 0 201 84 228 198h71c-32 -139 -119 -256 -312 -256c-222 0 -310 175 -310 379c0 275 144 379 335 379c148 0 256 -79 279 -228z" />
    <glyph glyph-name="afii10036" unicode="&#x422;" 
d="M312 662v-662h-68v662h-228v58h524v-58h-228z" />
    <glyph glyph-name="afii10037" unicode="&#x423;" horiz-adv-x="580" 
d="M4 720h71l214 -521l220 521h75l-273 -627c-37 -84 -73 -112 -148 -112c-15 0 -31 2 -42 5v57c8 -2 24 -4 38 -4c44 0 62 15 79 51l14 29z" />
    <glyph glyph-name="afii10038" unicode="&#x424;" horiz-adv-x="840" 
d="M386 720h68v-62h49c170 0 284 -131 284 -295c0 -169 -114 -292 -284 -292h-49v-71h-68v71h-49c-170 0 -284 123 -284 292c0 164 114 295 284 295h49v62zM386 129v471h-47c-137 0 -218 -101 -218 -235c0 -133 81 -236 218 -236h47zM454 600v-471h47c137 0 218 103 218 236
c0 134 -81 235 -218 235h-47z" />
    <glyph glyph-name="afii10039" unicode="&#x425;" horiz-adv-x="611" 
d="M28 720h79l197 -303l198 303h79l-236 -350l247 -370h-78l-210 318l-209 -318h-77l248 370z" />
    <glyph glyph-name="afii10040" unicode="&#x426;" horiz-adv-x="724" 
d="M149 720v-662h426v662h68v-662h55v-223h-68v165h-549v720h68z" />
    <glyph glyph-name="afii10041" unicode="&#x427;" horiz-adv-x="675" 
d="M75 720h68v-194c0 -119 85 -141 213 -141c70 0 102 4 170 13v322h68v-720h-68v338c-65 -10 -161 -11 -232 -11c-135 0 -219 59 -219 212v181z" />
    <glyph glyph-name="afii10042" unicode="&#x428;" horiz-adv-x="966" 
d="M149 720v-662h300v662h68v-662h300v662h68v-720h-804v720h68z" />
    <glyph glyph-name="afii10043" unicode="&#x429;" horiz-adv-x="966" 
d="M149 720v-662h300v662h68v-662h300v662h68v-662h55v-223h-68v165h-791v720h68z" />
    <glyph glyph-name="afii10044" unicode="&#x42a;" horiz-adv-x="693" 
d="M-7 720h217v-309h171c133 0 259 -49 259 -210c0 -108 -53 -201 -240 -201h-258v662h-149v58zM210 353v-295h142c150 0 220 20 220 145c0 119 -90 150 -211 150h-151z" />
    <glyph glyph-name="afii10045" unicode="&#x42b;" horiz-adv-x="859" 
d="M149 720v-309h171c133 0 259 -49 259 -210c0 -108 -53 -201 -240 -201h-258v720h68zM149 353v-295h142c150 0 220 20 220 145c0 119 -90 150 -211 150h-151zM778 720v-720h-68v720h68z" />
    <glyph glyph-name="afii10046" unicode="&#x42c;" horiz-adv-x="632" 
d="M149 720v-309h171c133 0 259 -49 259 -210c0 -108 -53 -201 -240 -201h-258v720h68zM149 353v-295h142c150 0 220 20 220 145c0 119 -90 150 -211 150h-151z" />
    <glyph glyph-name="afii10047" unicode="&#x42d;" horiz-adv-x="723" 
d="M56 511c23 149 131 228 279 228c191 0 335 -104 335 -379c0 -204 -88 -379 -310 -379c-193 0 -280 117 -312 256h71c27 -114 104 -198 228 -198c189 0 255 149 255 314h-308v58h308c-20 148 -89 270 -249 270c-123 0 -199 -47 -227 -170h-70z" />
    <glyph glyph-name="afii10048" unicode="&#x42e;" horiz-adv-x="1003" 
d="M149 411h130c24 186 132 328 332 328c225 0 339 -169 339 -380c0 -207 -114 -378 -336 -378c-217 0 -335 162 -335 372h-130v-353h-68v720h68v-309zM615 39c187 0 267 152 267 320c0 200 -103 322 -269 322c-185 0 -266 -155 -266 -322c0 -170 80 -320 268 -320z" />
    <glyph glyph-name="afii10049" unicode="&#x42f;" horiz-adv-x="632" 
d="M483 318h-178l-201 -318h-81l208 324c-99 16 -178 68 -178 195c0 108 53 201 240 201h258v-720h-68v318zM483 376v286h-142c-150 0 -220 -20 -220 -145c0 -119 84 -141 212 -141h150z" />
    <glyph glyph-name="afii10065" unicode="&#x430;" horiz-adv-x="558" 
d="M413 272c-26 -14 -81 -24 -155 -29c-91 -6 -146 -40 -146 -110c0 -63 55 -93 112 -93c95 0 189 46 189 151v81zM133 361h-61c9 122 100 171 213 171c105 0 188 -41 188 -161v-282c0 -33 6 -49 27 -49c8 0 21 4 36 9v-47c-15 -5 -36 -10 -47 -10c-49 0 -70 16 -76 80h-2
c-46 -55 -115 -86 -190 -86c-91 0 -173 49 -173 149c0 87 60 140 181 156l115 15c51 7 69 20 69 67c0 61 -36 105 -129 105c-83 0 -140 -27 -151 -117z" />
    <glyph glyph-name="afii10066" unicode="&#x431;" horiz-adv-x="583" 
d="M119 432c37 61 92 100 180 100c158 0 236 -121 236 -273c0 -164 -95 -273 -240 -273c-160 0 -240 123 -240 299c0 172 26 355 209 390c119 23 162 33 162 64h63c0 -69 -84 -93 -198 -114c-98 -18 -150 -67 -172 -193zM295 40c126 0 176 108 176 219
c0 122 -49 219 -176 219c-126 0 -176 -100 -176 -212c0 -120 60 -226 176 -226z" />
    <glyph glyph-name="afii10067" unicode="&#x432;" horiz-adv-x="522" 
d="M132 245v-195h167c68 0 111 35 111 95c0 74 -59 100 -127 100h-151zM132 468v-173h154c54 0 105 27 105 85c0 63 -40 88 -118 88h-141zM72 0v518h241c88 0 138 -61 138 -116c0 -64 -27 -109 -81 -128c56 -15 104 -58 104 -126c0 -98 -73 -148 -151 -148h-251z" />
    <glyph glyph-name="afii10068" unicode="&#x433;" horiz-adv-x="404" 
d="M72 518h320v-50h-260v-468h-60v518z" />
    <glyph glyph-name="afii10069" unicode="&#x434;" horiz-adv-x="553" 
d="M126 518h343v-468h52v-185h-60v135h-383v-135h-60v185h46c56 102 62 214 62 311v157zM409 468h-224v-114c0 -111 -5 -200 -57 -304h281v418z" />
    <glyph glyph-name="afii10070" unicode="&#x435;" horiz-adv-x="562" 
d="M112 295h338c0 101 -56 183 -164 183c-106 0 -162 -85 -174 -183zM514 245h-402c0 -111 59 -205 174 -205c78 0 139 43 157 119h67c-30 -98 -92 -173 -224 -173c-166 0 -238 118 -238 271c0 151 90 275 238 275c142 0 228 -100 228 -287z" />
    <glyph glyph-name="afii10072" unicode="&#x436;" horiz-adv-x="734" 
d="M27 518h78l232 -256v256h60v-256l232 256h78l-186 -204l207 -314h-68l-183 272l-80 -82v-190h-60v190l-80 82l-183 -272h-68l207 314z" />
    <glyph glyph-name="afii10073" unicode="&#x437;" horiz-adv-x="505" 
d="M112 370h-58c8 97 90 162 190 162c134 0 194 -66 194 -135c0 -65 -46 -110 -98 -119c64 -15 117 -66 117 -141c0 -99 -79 -151 -207 -151s-203 66 -213 176h59c8 -77 64 -122 157 -122c87 0 140 39 140 96c0 79 -58 115 -126 115h-53v50h65c48 0 99 40 99 90
c0 62 -52 87 -132 87c-78 0 -116 -33 -134 -108z" />
    <glyph glyph-name="afii10074" unicode="&#x438;" horiz-adv-x="566" 
d="M132 518v-438l296 438h66v-518h-60v438l-295 -438h-67v518h60z" />
    <glyph glyph-name="afii10075" unicode="&#x439;" horiz-adv-x="566" 
d="M132 518v-438l296 438h66v-518h-60v438l-295 -438h-67v518h60zM139 697h39c11 -55 50 -81 105 -81c56 0 93 25 107 81h37c-9 -84 -67 -126 -149 -126c-79 0 -133 47 -139 126z" />
    <glyph glyph-name="afii10076" unicode="&#x43a;" horiz-adv-x="504" 
d="M132 518v-246l254 246h82l-194 -187l217 -331h-67l-194 289l-98 -93v-196h-60v518h60z" />
    <glyph glyph-name="afii10077" unicode="&#x43b;" horiz-adv-x="553" 
d="M111 518h359v-518h-60v468h-239v-97c0 -72 -4 -171 -10 -221c-12 -103 -46 -154 -110 -154c-13 0 -31 2 -44 7v49c12 -3 30 -4 36 -4c15 0 30 11 43 34c19 33 25 129 25 436z" />
    <glyph glyph-name="afii10078" unicode="&#x43c;" horiz-adv-x="649" 
d="M72 518h78l175 -450l174 450h78v-518h-60v424l-165 -424h-55l-165 424v-424h-60v518z" />
    <glyph glyph-name="afii10079" unicode="&#x43d;" horiz-adv-x="558" 
d="M135 518v-217h288v217h60v-518h-60v251h-288v-251h-60v518h60z" />
    <glyph glyph-name="afii10080" unicode="&#x43e;" horiz-adv-x="576" 
d="M288 532c162 0 240 -121 240 -273c0 -164 -95 -273 -240 -273c-132 0 -240 92 -240 273c0 151 80 273 240 273zM288 478c-126 0 -176 -107 -176 -219c0 -129 61 -219 176 -219c126 0 176 108 176 219c0 122 -49 219 -176 219z" />
    <glyph glyph-name="afii10081" unicode="&#x43f;" horiz-adv-x="552" 
d="M72 518h408v-518h-60v468h-288v-468h-60v518z" />
    <glyph glyph-name="afii10082" unicode="&#x440;" horiz-adv-x="596" 
d="M307 478c-104 0 -175 -80 -175 -226c0 -112 62 -212 175 -212c101 0 177 92 177 210c0 125 -53 228 -177 228zM132 83v-287h-60v722h60v-91h2c35 68 114 105 180 105c167 0 234 -119 234 -272c0 -145 -73 -274 -231 -274c-73 0 -147 34 -185 97z" />
    <glyph glyph-name="afii10083" unicode="&#x441;" horiz-adv-x="557" 
d="M501 355h-61c-21 77 -74 123 -154 123c-123 0 -174 -112 -174 -220c0 -109 50 -218 174 -218c89 0 145 53 159 139h64c-21 -115 -93 -193 -223 -193c-165 0 -238 119 -238 272c0 144 83 274 238 274c119 0 197 -57 215 -177z" />
    <glyph glyph-name="afii10084" unicode="&#x442;" horiz-adv-x="436" 
d="M14 518h408v-50h-174v-468h-60v468h-174v50z" />
    <glyph glyph-name="afii10085" unicode="&#x443;" horiz-adv-x="490" 
d="M18 518h67l166 -445l166 445h65l-193 -511c-49 -130 -81 -211 -164 -211c-21 0 -41 3 -57 7v56c16 -3 33 -6 50 -6c40 0 61 28 101 143z" />
    <glyph glyph-name="afii10086" unicode="&#x444;" horiz-adv-x="870" 
d="M258 40c103 0 147 109 147 221c0 115 -53 217 -147 217c-101 0 -146 -113 -146 -217c0 -114 42 -221 146 -221zM405 739h60v-299c28 49 85 92 156 92c136 0 201 -129 201 -273c0 -149 -60 -273 -201 -273c-68 0 -121 27 -156 89v-279h-60v281c-35 -62 -88 -91 -156 -91
c-141 0 -201 126 -201 275c0 144 65 271 201 271c71 0 128 -41 156 -90v297zM612 40c104 0 146 107 146 221c0 104 -45 217 -146 217c-94 0 -147 -102 -147 -217c0 -112 44 -221 147 -221z" />
    <glyph glyph-name="afii10087" unicode="&#x445;" horiz-adv-x="500" 
d="M34 518h74l143 -206l147 206h76l-187 -250l194 -268h-72l-157 224l-161 -224h-73l199 268z" />
    <glyph glyph-name="afii10088" unicode="&#x446;" horiz-adv-x="560" 
d="M132 518v-468h288v468h60v-468h52v-186h-60v136h-400v518h60z" />
    <glyph glyph-name="afii10089" unicode="&#x447;" horiz-adv-x="510" 
d="M55 518h60v-142c0 -61 45 -96 114 -96c104 0 124 6 149 16v222h60v-518h-60v245c-48 -15 -100 -19 -160 -19c-87 0 -163 54 -163 157v135z" />
    <glyph glyph-name="afii10090" unicode="&#x448;" horiz-adv-x="848" 
d="M132 518v-468h262v468h60v-468h262v468h60v-518h-704v518h60z" />
    <glyph glyph-name="afii10091" unicode="&#x449;" horiz-adv-x="856" 
d="M132 518v-468h262v468h60v-468h262v468h60v-468h52v-186h-60v136h-696v518h60z" />
    <glyph glyph-name="afii10092" unicode="&#x44a;" horiz-adv-x="539" 
d="M-11 518h170v-217h152c111 0 180 -63 180 -152c0 -138 -131 -149 -172 -149h-220v468h-110v50zM159 251v-201h135c90 0 133 37 133 99c0 64 -52 102 -120 102h-148z" />
    <glyph glyph-name="afii10093" unicode="&#x44b;" horiz-adv-x="701" 
d="M132 518v-217h152c111 0 180 -63 180 -152c0 -138 -131 -149 -172 -149h-220v518h60zM132 251v-201h135c90 0 133 37 133 99c0 64 -52 102 -120 102h-148zM629 518v-518h-60v518h60z" />
    <glyph glyph-name="afii10094" unicode="&#x44c;" horiz-adv-x="512" 
d="M132 518v-217h152c111 0 180 -63 180 -152c0 -138 -131 -149 -172 -149h-220v518h60zM132 251v-201h135c90 0 133 37 133 99c0 64 -52 102 -120 102h-148z" />
    <glyph glyph-name="afii10095" unicode="&#x44d;" horiz-adv-x="555" 
d="M54 355c19 106 96 177 215 177c155 0 238 -130 238 -274c0 -153 -73 -272 -238 -272c-130 0 -202 78 -223 193h64c14 -86 70 -139 159 -139c119 0 174 106 174 211h-206v50h203c-8 88 -62 177 -171 177c-80 0 -133 -46 -154 -123h-61z" />
    <glyph glyph-name="afii10096" unicode="&#x44e;" horiz-adv-x="766" 
d="M132 518v-217h109c13 130 90 231 237 231c162 0 240 -121 240 -273c0 -164 -95 -273 -240 -273c-129 0 -240 86 -240 265h-106v-251h-60v518h60zM654 259c0 122 -49 219 -176 219c-126 0 -176 -107 -176 -219c0 -129 61 -219 176 -219c126 0 176 108 176 219z" />
    <glyph glyph-name="afii10097" unicode="&#x44f;" horiz-adv-x="512" 
d="M380 221h-143l-125 -221h-67l131 226c-86 21 -128 72 -128 143c0 138 131 149 172 149h220v-518h-60v221zM380 271v197h-135c-90 0 -133 -37 -133 -99c0 -64 52 -98 120 -98h148z" />
    <glyph glyph-name="Euro" unicode="&#x20ac;" 
d="M512 654v-64c-32 32 -85 58 -157 58c-123 0 -183 -96 -196 -211h306l-17 -50h-295c-1 -10 -1 -27 -1 -39c0 -16 0 -31 1 -41h266l-17 -50h-242c16 -135 84 -214 196 -214c72 0 120 25 156 59v-66c-26 -24 -84 -49 -163 -49c-139 0 -228 87 -250 270h-70l17 50h48
c-1 10 -2 28 -2 41s1 28 1 39h-64l17 50h52c19 151 92 268 251 268c76 0 134 -26 163 -51z" />
    </font>
</defs>
</svg>
